<svg width="80" height="103" viewBox="0 0 80 103" fill="none" xmlns="http://www.w3.org/2000/svg">
<g id="Guides" clip-path="url(#clip0_1_299)">
<g id="Group">
<path id="Vector" d="M40.9404 0C35.1933 0 29.8224 2.30203 25.8307 6.4837C24.0752 8.3211 22.6959 10.4119 21.7137 12.6928H0V0H40.9404Z" fill="#6EA493"/>
<path id="Vector_2" d="M29.3417 54.1716C29.3417 47.709 34.5455 42.4503 40.9404 42.4503C34.7962 42.4503 29.2581 39.7681 25.4128 35.502C20.1463 39.9793 16.7816 46.6953 16.7816 54.1927C16.7816 58.4378 17.8683 62.4294 19.7492 65.9141H40.9404C34.5455 65.9141 29.3417 60.6553 29.3417 54.1927V54.1716Z" fill="#457865"/>
<path id="Vector_3" d="M49.3835 21.2252C49.3835 25.9348 45.6009 29.7575 40.9405 29.7575C46.8548 29.7575 52.2675 31.9117 56.4681 35.4809C59.4984 32.1017 61.4838 27.7511 61.86 22.957C57.0324 16.7267 49.5298 12.6929 41.1076 12.6929H40.9196C45.58 12.6929 49.3626 16.5155 49.3626 21.2252H49.3835Z" fill="#6EA493"/>
<path id="Vector_4" d="M40.9404 78.5858H0V65.8929H19.7492C23.8662 73.4537 31.8077 78.5858 40.9404 78.5858Z" fill="#163F36"/>
<path id="Vector_5" d="M80 39.2823C80 60.8665 63.1348 78.2479 41.4629 78.5647C54.5455 78.2901 65.0993 67.4347 65.0993 54.1505C65.0993 52.9889 65.0157 51.8696 64.8694 50.7503C66.5204 47.2655 67.4399 43.3795 67.4399 39.2823C67.4399 33.1154 65.3501 27.4554 61.86 22.9358C61.9018 22.3656 61.9436 21.7954 61.9436 21.204C61.9436 9.58827 52.6228 0.105598 41.1285 0C62.5287 0.0422391 80 17.6559 80 39.2823Z" fill="#457865"/>
<path id="Vector_6" d="M56.4681 35.4808C52.6228 39.747 47.0846 42.4503 40.9404 42.4503C47.3354 42.4503 52.5392 47.709 52.5392 54.1716C52.5392 60.6342 47.3354 65.893 40.9404 65.893H41.1285C51.5778 65.893 60.627 59.705 64.8694 50.7714C64.0334 44.6678 60.9404 39.2824 56.4681 35.4808Z" fill="#457865"/>
<path id="Vector_7" d="M40.9404 29.7574C35.0261 29.7574 29.6133 31.9116 25.4127 35.502C29.2581 39.7681 34.7962 42.4503 40.9404 42.4503C47.0846 42.4503 52.6228 39.7681 56.4681 35.4808C52.2675 31.9116 46.8547 29.7574 40.9404 29.7574Z" fill="#1A402E"/>
<path id="Vector_8" d="M12.581 18.7964H0V59.895H12.581V18.7964Z" fill="#163F36"/>
<path id="Vector_9" d="M65.0993 54.1716C65.0993 53.01 65.0157 51.8907 64.8694 50.7714C60.6269 59.7049 51.5778 65.893 41.1285 65.893H19.7492C23.8662 73.4538 31.8077 78.5858 40.9404 78.5858C54.2738 78.5858 65.0993 67.6248 65.0993 54.1716Z" fill="#0C1F19"/>
<path id="Vector_10" d="M61.9436 21.2251C61.9436 21.8165 61.9227 22.3867 61.86 22.9569C57.0324 16.7267 49.5298 12.714 41.1285 12.714H21.7137C22.6959 10.4331 24.0961 8.34222 25.8307 6.50482C29.8224 2.30203 35.1933 0 40.9404 0H41.1285C52.6228 0.105598 61.9436 9.58827 61.9436 21.2251Z" fill="#163F36"/>
<path id="Vector_11" d="M32.4974 21.2252C32.4974 16.5155 36.2801 12.6929 40.9405 12.6929H21.7137C20.5643 15.3539 19.9373 18.2473 19.9373 21.2252C19.9373 26.7162 22.0063 31.7216 25.3919 35.4809C29.5925 31.9117 35.0261 29.7363 40.9196 29.7363C36.2592 29.7363 32.4765 25.9137 32.4765 21.204L32.4974 21.2252Z" fill="#6EA493"/>
</g>
<path id="Vector_12" d="M0 88.5964H2.86311V102.768H0V88.5964Z" fill="#163F36"/>
<path id="Vector_13" d="M4.953 88.5964H9.6343C13.8349 88.5964 16.5935 91.2575 16.5935 95.6292C16.5935 100.001 13.814 102.747 9.6343 102.747H4.953V88.5753V88.5964ZM7.81612 91.0674V100.297H9.5507C12.3302 100.297 13.6259 98.6282 13.6259 95.6504C13.6259 92.6725 12.3302 91.0674 9.5507 91.0674H7.81612Z" fill="#163F36"/>
<path id="Vector_14" d="M18.2445 99.1351C18.2445 97.6145 19.0387 96.5585 20.1672 95.9671C19.2059 95.2913 18.558 94.3832 18.558 92.9048C18.558 90.4972 20.5016 88.9343 23.1766 88.9343C26.3532 88.9343 27.8579 90.6239 27.8579 92.6936C27.8579 94.0241 27.2309 95.0379 26.186 95.7348C27.4608 96.474 28.1923 97.4244 28.1923 98.8605C28.1923 101.416 26.3114 103 23.1557 103C20.3553 103 18.2236 101.648 18.2236 99.1351H18.2445ZM25.3919 99.0717C25.3919 97.889 24.4096 97.53 22.5706 96.9809C22.4661 96.9809 22.3825 96.9175 22.2989 96.8964C21.6092 97.3188 21.0867 97.9735 21.0867 98.9028C21.0867 100.107 22.069 100.761 23.2811 100.761C24.5559 100.761 25.4128 100.17 25.4128 99.0717H25.3919ZM24.0753 94.8478C24.7022 94.3409 25.0993 93.7285 25.0993 92.8626C25.0993 91.8488 24.4096 91.173 23.1975 91.173C22.1317 91.173 21.3793 91.7855 21.3793 92.757C21.3793 93.8552 22.1735 94.3198 23.6364 94.7422C23.8036 94.7844 23.929 94.8267 24.0753 94.8689V94.8478Z" fill="#163F36"/>
<path id="Vector_15" d="M45.9979 88.5964V102.768H45.0575V92.4191C45.0575 91.6376 45.0575 90.9618 45.0993 90.4127C43.72 93.644 41.9854 96.9386 39.6238 100.677H38.7252C36.3846 96.9598 34.65 93.644 33.2289 90.3916C33.2707 90.9618 33.2916 91.6588 33.2916 92.4191V102.768H32.372V88.5964H33.3751C34.8589 92.2924 36.8861 95.946 39.2059 99.7476C41.5256 95.946 43.4901 92.2924 44.9739 88.5964H45.9979Z" fill="#163F36"/>
<path id="Vector_16" d="M53.187 103C50.0731 103 48.0878 101.184 48.0878 97.6567C48.0878 94.5944 49.7388 92.3768 52.6019 92.3768C55.2769 92.3768 56.6144 94.3621 56.6144 96.7275C56.6144 97.1287 56.6144 97.4455 56.5517 97.8257H49.07C49.1327 100.761 50.7419 102.134 53.2497 102.134C54.2947 102.134 55.3814 101.881 56.3427 101.437L56.5726 102.261C55.5486 102.768 54.4619 102.979 53.2288 102.979L53.187 103ZM49.07 97.0442H55.6113C55.6113 96.8753 55.6113 96.7908 55.6113 96.6007C55.6113 94.9112 54.7753 93.2216 52.5601 93.2216C50.3448 93.2216 49.2163 94.8056 49.0282 97.0442H49.07Z" fill="#163F36"/>
<path id="Vector_17" d="M63.3438 103C60.418 103 58.4535 101.12 58.4535 97.8468C58.4535 94.5733 60.2299 92.3769 63.6155 92.3769C64.3469 92.3769 65.0993 92.5458 65.7053 92.7781V88.1741L66.6458 88.1107V102.092C65.8725 102.641 64.7649 102.979 63.3438 102.979V103ZM63.3438 102.134C64.2842 102.134 65.2456 101.902 65.7262 101.564V93.7074C65.1202 93.4328 64.3678 93.2216 63.6573 93.2216C60.8986 93.2216 59.4566 94.9534 59.4566 97.8257C59.4566 100.487 61.0031 102.113 63.3438 102.113V102.134Z" fill="#163F36"/>
<path id="Vector_18" d="M69.2581 89.4623C69.2581 89.0822 69.5089 88.7443 69.9896 88.7443C70.4284 88.7443 70.7001 89.0822 70.7001 89.4623C70.7001 89.8847 70.4493 90.2015 69.9896 90.2015C69.5089 90.2015 69.2581 89.8847 69.2581 89.4623ZM70.4493 102.768H69.5089V92.6303H70.4493V102.768Z" fill="#163F36"/>
<path id="Vector_19" d="M76.2592 103C73.8349 103 72.581 101.796 72.581 100.064C72.581 97.8257 74.3574 97.002 76.4263 97.002C77.325 97.002 78.2445 97.1287 79.0596 97.2977V95.9249C79.0596 94.2353 78.2027 93.2216 76.2383 93.2216C75.1933 93.2216 74.232 93.4539 73.5214 93.7707L73.2707 92.9471C74.0021 92.6303 75.1515 92.3768 76.2801 92.3768C78.767 92.3768 80.0209 93.6018 80.0209 95.9671V102.028C79.1223 102.599 77.9728 103 76.2801 103H76.2592ZM79.0596 101.5V98.1213C78.3281 97.9313 77.5131 97.8046 76.4681 97.8046C74.7754 97.8046 73.5214 98.3537 73.5214 100.064C73.5214 101.458 74.5664 102.176 76.2801 102.176C77.7012 102.176 78.5371 101.838 79.0387 101.5H79.0596Z" fill="#163F36"/>
</g>
<defs>
<clipPath id="clip0_1_299">
<rect width="80" height="103" fill="white"/>
</clipPath>
</defs>
</svg>
