<svg width="778" height="567" viewBox="0 0 778 567" fill="none" xmlns="http://www.w3.org/2000/svg">
<g clip-path="url(#clip0_1_649)">
<path d="M723.582 201.075C737.122 187.536 737.122 165.585 723.582 152.046C710.042 138.507 688.09 138.507 674.55 152.046C661.01 165.585 661.01 187.536 674.55 201.075C688.09 214.614 710.042 214.614 723.582 201.075Z" fill="#8FC1E8"/>
<path d="M429.28 65.025C435.678 46.9787 426.234 27.1629 408.186 20.7652C390.139 14.3676 370.321 23.8108 363.923 41.8571C357.525 59.9035 366.969 79.7193 385.017 86.1169C403.064 92.5146 422.882 83.0714 429.28 65.025Z" fill="#8FC1E8"/>
<path d="M328.802 485.449C342.342 471.91 342.342 449.96 328.802 436.421C315.262 422.882 293.309 422.882 279.769 436.421C266.229 449.96 266.229 471.91 279.769 485.449C293.309 498.988 315.262 498.988 328.802 485.449Z" fill="#8FC1E8"/>
<path d="M658.288 224.896C657.707 222.425 657.047 219.958 656.309 217.492C645.382 180.97 618.567 147.551 582.85 133.331C539.013 115.883 492.1 129.044 448.212 139.212C423.543 144.926 400.821 136.495 382.187 120.129C358.735 99.5317 337.299 71.4086 306.707 60.9147C256.055 43.5411 198.921 48.9436 156.552 77.8518C136.878 91.2769 120.715 109.092 110.225 129.666C99.6047 150.501 95.2656 173.918 97.319 197.298C99.3724 220.641 107.698 243.826 121.89 263.685C138.871 287.437 163.33 306.316 190.759 318.784C239.474 340.924 292.77 330.23 333.978 369.358C351.632 386.123 365.016 406.614 384.653 421.247C403.812 435.522 426.224 445.454 449.717 449.858C538.674 466.516 612.197 404.603 645.54 327.053C659.514 294.549 666.459 259.597 658.288 224.901V224.896Z" fill="#8FC1E8"/>
<path d="M321.866 133.318C325.843 128.77 328.24 122.898 328.24 116.483C328.24 102.05 316.115 90.3479 301.16 90.3479C286.206 90.3479 274.08 102.05 274.08 116.483C274.08 130.916 286.206 142.618 301.16 142.618C301.193 142.618 301.23 142.618 301.262 142.618C300.946 143.774 300.779 144.991 300.779 146.241C300.779 154.124 307.399 160.516 315.571 160.516C323.743 160.516 330.363 154.124 330.363 146.241C330.363 140.532 326.888 135.603 321.866 133.322V133.318Z" fill="white"/>
<path d="M315.576 161.794C306.712 161.794 299.502 154.816 299.502 146.236C299.502 145.437 299.567 144.643 299.688 143.862C284.733 143.119 272.803 131.12 272.803 116.483C272.803 101.845 285.527 89.0657 301.165 89.0657C316.802 89.0657 329.527 101.367 329.527 116.483C329.527 122.41 327.529 128.184 323.864 132.913C328.64 135.705 331.646 140.778 331.646 146.241C331.646 154.821 324.435 161.798 315.571 161.798L315.576 161.794ZM301.267 141.331C301.667 141.331 302.043 141.517 302.284 141.832C302.531 142.148 302.61 142.562 302.507 142.952C302.215 144.025 302.071 145.131 302.071 146.241C302.071 153.404 308.129 159.229 315.576 159.229C323.023 159.229 329.081 153.404 329.081 146.241C329.081 141.242 326.043 136.63 321.337 134.493C320.965 134.326 320.7 133.991 320.612 133.596C320.528 133.201 320.635 132.788 320.9 132.481C324.807 128.012 326.958 122.331 326.958 116.487C326.958 102.783 315.385 91.6392 301.165 91.6392C286.944 91.6392 275.372 102.788 275.372 116.487C275.372 130.186 286.944 141.335 301.165 141.335H301.262C301.262 141.335 301.262 141.335 301.267 141.335V141.331Z" fill="#0C133D"/>
<path d="M285.63 158.063C289.127 158.063 291.962 155.328 291.962 151.955C291.962 148.581 289.127 145.846 285.63 145.846C282.132 145.846 279.297 148.581 279.297 151.955C279.297 155.328 282.132 158.063 285.63 158.063Z" fill="white"/>
<path d="M285.63 159.35C281.43 159.35 278.015 156.033 278.015 151.959C278.015 147.885 281.43 144.569 285.63 144.569C289.829 144.569 293.244 147.885 293.244 151.959C293.244 156.033 289.829 159.35 285.63 159.35ZM285.63 147.133C282.847 147.133 280.584 149.298 280.584 151.959C280.584 154.621 282.847 156.786 285.63 156.786C288.412 156.786 290.675 154.621 290.675 151.959C290.675 149.298 288.412 147.133 285.63 147.133Z" fill="#0C133D"/>
<path d="M280.44 201.73C280.44 208.791 286.164 214.514 293.225 214.514C297.29 214.514 300.909 212.614 303.251 209.655L305.806 229.648C306.154 232.389 308.491 234.447 311.255 234.447H338.373C341.137 234.447 343.474 232.394 343.822 229.648L349.546 184.83C349.964 181.546 347.409 178.642 344.096 178.642H305.532C302.219 178.642 299.664 181.55 300.082 184.83L300.937 191.533C298.796 189.907 296.124 188.946 293.225 188.946C286.164 188.946 280.44 194.669 280.44 201.73ZM287.859 201.73C287.859 198.766 290.261 196.364 293.225 196.364C296.189 196.364 298.591 198.766 298.591 201.73C298.591 204.694 296.189 207.095 293.225 207.095C290.261 207.095 287.859 204.694 287.859 201.73Z" fill="#D75439"/>
<path d="M338.368 235.734H311.251C307.85 235.734 304.96 233.188 304.528 229.816L302.312 212.465C299.794 214.607 296.598 215.796 293.221 215.796C285.462 215.796 279.153 209.488 279.153 201.73C279.153 193.972 285.462 187.664 293.221 187.664C295.367 187.664 297.434 188.138 299.32 189.048L298.805 184.993C298.559 183.06 299.153 181.118 300.44 179.655C301.727 178.197 303.581 177.356 305.527 177.356H344.091C346.038 177.356 347.892 178.192 349.179 179.655C350.465 181.114 351.06 183.06 350.814 184.993L345.09 229.811C344.658 233.184 341.769 235.729 338.368 235.729V235.734ZM303.251 208.377C303.367 208.377 303.483 208.391 303.595 208.424C304.092 208.563 304.459 208.986 304.524 209.497L307.079 229.491C307.348 231.586 309.142 233.165 311.255 233.165H338.373C340.486 233.165 342.28 231.586 342.549 229.491L348.273 184.672C348.426 183.474 348.054 182.266 347.255 181.355C346.456 180.45 345.304 179.929 344.096 179.929H305.532C304.324 179.929 303.172 180.45 302.373 181.355C301.574 182.261 301.202 183.469 301.355 184.672L302.21 191.375C302.275 191.886 302.029 192.388 301.578 192.648C301.132 192.908 300.57 192.871 300.161 192.56C298.15 191.036 295.753 190.233 293.225 190.233C286.884 190.233 281.727 195.389 281.727 201.73C281.727 208.071 286.884 213.227 293.225 213.227C296.761 213.227 300.045 211.634 302.247 208.856C302.494 208.545 302.87 208.368 303.255 208.368L303.251 208.377ZM293.225 208.382C289.56 208.382 286.577 205.4 286.577 201.735C286.577 198.069 289.56 195.087 293.225 195.087C296.891 195.087 299.873 198.069 299.873 201.735C299.873 205.4 296.891 208.382 293.225 208.382ZM293.225 197.656C290.977 197.656 289.146 199.486 289.146 201.735C289.146 203.983 290.977 205.813 293.225 205.813C295.474 205.813 297.304 203.983 297.304 201.735C297.304 199.486 295.474 197.656 293.225 197.656Z" fill="#0C133D"/>
<path d="M375.158 205.037C374.884 197.99 371.139 191.533 365.151 187.803C357.629 183.116 351.896 179.952 346.224 177.128C335.975 172.023 328.858 170.583 325.327 175.563C321.797 180.542 328.998 189.959 344.612 196.007C344.612 196.007 322.893 190.321 321.267 201.08C320.658 205.107 324.533 209.339 329.541 210.658C324.51 211.244 320.31 213.013 320.054 217.65C319.831 221.668 325.722 225.821 332.988 226.369C329.044 227.414 324.802 229.644 324.593 234.41C324.375 239.292 329.527 241.708 337.866 242.609C334.939 254.269 328.691 279.159 328.691 279.159H378.057L375.162 205.042L375.158 205.037Z" fill="white"/>
<path d="M378.052 280.436H328.686C328.291 280.436 327.92 280.255 327.673 279.944C327.432 279.633 327.344 279.224 327.441 278.843L336.263 243.705C332.412 243.185 329.495 242.335 327.376 241.113C324.547 239.483 323.181 237.211 323.306 234.35C323.45 231.14 325.16 228.589 328.315 226.824C322.633 225.175 318.554 221.454 318.772 217.575C318.972 213.975 321.165 211.508 325.304 210.212C321.704 207.973 319.478 204.317 319.999 200.884C320.352 198.557 321.527 196.717 323.497 195.421C326.721 193.298 331.636 193.02 335.947 193.326C329.36 189.554 324.821 185.039 323.525 180.728C322.856 178.503 323.116 176.459 324.282 174.819C328.928 168.274 338.27 171.735 346.8 175.98C353.025 179.079 358.893 182.391 365.834 186.716C372.184 190.674 376.152 197.507 376.444 204.986L379.339 279.103C379.353 279.451 379.223 279.791 378.981 280.041C378.739 280.292 378.405 280.436 378.056 280.436H378.052ZM330.335 277.872H376.719L373.875 205.088C373.615 198.455 370.103 192.402 364.472 188.895C357.606 184.616 351.799 181.341 345.652 178.275C335.083 173.012 329.141 172.404 326.373 176.301C325.671 177.286 325.541 178.526 325.978 179.989C327.144 183.864 332.844 190.075 345.072 194.808C345.708 195.054 346.038 195.751 345.829 196.402C345.62 197.047 344.942 197.423 344.282 197.247C344.147 197.21 330.684 193.758 324.9 197.568C323.548 198.459 322.772 199.672 322.531 201.27C322.043 204.508 325.397 208.238 329.862 209.413C330.456 209.571 330.86 210.129 330.814 210.746C330.772 211.36 330.294 211.857 329.68 211.931C322.433 212.776 321.439 215.638 321.323 217.719C321.155 220.706 326.252 224.571 333.072 225.087C333.694 225.133 334.196 225.626 334.252 226.248C334.308 226.871 333.908 227.447 333.304 227.604C328.51 228.877 326.006 231.181 325.862 234.461C325.801 235.827 325.615 239.994 337.987 241.327C338.354 241.369 338.688 241.564 338.902 241.87C339.116 242.177 339.186 242.558 339.093 242.916L330.317 277.872H330.335Z" fill="#0C133D"/>
<path d="M352.222 247.566C351.511 247.566 350.939 246.99 350.939 246.283C350.939 245.819 350.591 245.429 350.136 245.373L337.713 243.877C337.011 243.794 336.51 243.153 336.593 242.451C336.677 241.75 337.318 241.243 338.02 241.332L350.442 242.827C352.189 243.036 353.508 244.523 353.508 246.283C353.508 246.994 352.932 247.566 352.226 247.566H352.222Z" fill="#0C133D"/>
<path d="M355.655 230.671C355.543 230.671 355.427 230.657 355.311 230.624C350.098 229.189 333.044 227.656 332.872 227.642C332.166 227.577 331.646 226.954 331.706 226.248C331.771 225.542 332.394 225.022 333.1 225.082C333.81 225.147 350.558 226.648 355.994 228.148C356.677 228.339 357.076 229.045 356.891 229.728C356.733 230.294 356.217 230.671 355.655 230.671Z" fill="#0C133D"/>
<path d="M362.898 201.432C362.758 201.432 362.614 201.409 362.475 201.363C358.345 199.927 344.51 197.293 344.37 197.266C343.673 197.136 343.218 196.462 343.348 195.765C343.478 195.068 344.152 194.608 344.849 194.743C345.425 194.85 359.004 197.437 363.316 198.938C363.985 199.17 364.338 199.904 364.105 200.573C363.92 201.103 363.422 201.437 362.893 201.437L362.898 201.432Z" fill="#0C133D"/>
<path d="M358.442 216.47C358.354 216.47 358.266 216.46 358.177 216.442C353.81 215.531 329.597 211.959 329.355 211.922C328.654 211.82 328.171 211.165 328.273 210.463C328.375 209.762 329.03 209.279 329.732 209.381C330.73 209.529 354.261 213 358.702 213.924C359.395 214.068 359.841 214.746 359.697 215.443C359.571 216.047 359.037 216.465 358.442 216.465V216.47Z" fill="#0C133D"/>
<path d="M632.569 1.28223H404.653V265.683H632.569V1.28223Z" fill="white"/>
<path d="M618.655 253.052H418.567C417.857 253.052 417.285 252.476 417.285 251.77V15.195C417.285 14.4842 417.861 13.9128 418.567 13.9128H618.655C619.366 13.9128 619.937 14.4889 619.937 15.195V251.77C619.937 252.48 619.361 253.052 618.655 253.052ZM419.85 250.488H617.373V16.4771H419.85V250.488Z" fill="#0C133D"/>
<path d="M632.569 266.965H404.653C403.943 266.965 403.371 266.389 403.371 265.683V1.28212C403.371 0.571381 403.947 0 404.653 0H632.569C633.28 0 633.851 0.576026 633.851 1.28212V265.683C633.851 266.393 633.275 266.965 632.569 266.965ZM405.936 264.401H631.287V2.56424H405.936V264.396V264.401Z" fill="#0C133D"/>
<path d="M518.609 252.769C517.898 252.769 517.327 252.193 517.327 251.486V15.4831C517.327 14.7723 517.903 14.2009 518.609 14.2009C519.315 14.2009 519.891 14.777 519.891 15.4831V251.486C519.891 252.197 519.315 252.769 518.609 252.769Z" fill="#0C133D"/>
<path d="M618.534 134.767H418.684C417.973 134.767 417.401 134.191 417.401 133.485C417.401 132.779 417.977 132.203 418.684 132.203H618.534C619.245 132.203 619.816 132.779 619.816 133.485C619.816 134.191 619.24 134.767 618.534 134.767Z" fill="#0C133D"/>
<path d="M273.681 513.936H218.508V413.656H194.791V513.936H139.619C133.951 513.936 129.351 518.53 129.351 524.202V541.399H147.094V530.622H266.196V541.399H283.938V524.202C283.938 518.535 279.344 513.936 273.671 513.936H273.681Z" fill="white"/>
<path d="M283.943 542.682H266.201C265.49 542.682 264.919 542.105 264.919 541.399V531.909H148.38V541.399C148.38 542.11 147.804 542.682 147.098 542.682H129.356C128.645 542.682 128.074 542.105 128.074 541.399V524.202C128.074 517.833 133.254 512.654 139.623 512.654H193.509V413.656C193.509 412.946 194.085 412.374 194.791 412.374H218.508C219.219 412.374 219.79 412.95 219.79 413.656V512.654H273.676C280.045 512.654 285.225 517.833 285.225 524.202V541.399C285.225 542.11 284.649 542.682 283.943 542.682ZM267.483 540.117H282.661V524.202C282.661 519.25 278.633 515.223 273.681 515.223H218.508C217.797 515.223 217.226 514.647 217.226 513.941V414.943H196.074V513.941C196.074 514.651 195.497 515.223 194.791 515.223H139.619C134.666 515.223 130.638 519.25 130.638 524.202V540.117H145.816V530.627C145.816 529.916 146.392 529.345 147.098 529.345H266.201C266.912 529.345 267.483 529.921 267.483 530.627V540.117Z" fill="#0C133D"/>
<path d="M150.036 556.02C156.478 549.578 156.478 539.134 150.036 532.692C143.593 526.25 133.148 526.25 126.705 532.692C120.263 539.134 120.263 549.578 126.705 556.02C133.148 562.462 143.593 562.462 150.036 556.02Z" fill="#0C133D"/>
<path d="M290.978 548.122C293.071 539.256 287.579 530.371 278.712 528.279C269.844 526.186 260.959 531.677 258.866 540.544C256.773 549.411 262.265 558.295 271.133 560.388C280 562.481 288.885 556.989 290.978 548.122Z" fill="#0C133D"/>
<path d="M283.698 546.404C284.842 541.558 281.84 536.702 276.993 535.558C272.146 534.414 267.29 537.415 266.146 542.262C265.002 547.109 268.004 551.965 272.851 553.109C277.698 554.253 282.554 551.251 283.698 546.404Z" fill="white"/>
<path d="M218.508 515.218H194.791C194.081 515.218 193.509 514.642 193.509 513.936C193.509 513.23 194.085 512.654 194.791 512.654H218.508C219.219 512.654 219.79 513.23 219.79 513.936C219.79 514.642 219.214 515.218 218.508 515.218Z" fill="#0C133D"/>
<path d="M144.747 550.732C148.268 547.21 148.268 541.501 144.747 537.98C141.225 534.459 135.516 534.459 131.994 537.98C128.473 541.501 128.473 547.21 131.994 550.732C135.516 554.253 141.225 554.253 144.747 550.732Z" fill="white"/>
<path d="M290.038 400.923C289.281 400.923 285.801 390.165 285.476 389.338C281.839 380.094 278.192 370.854 274.559 361.61C266.327 340.678 258.485 319.592 249.834 298.827C239.325 273.594 213.035 270.816 188.817 271.322C171.326 271.689 153.83 271.829 136.339 271.541C123.698 271.332 111.029 270.886 98.3969 271.703C86.8941 272.446 75.3308 273.738 67.7815 283.549C58.9964 294.967 60.9244 308.597 65.8489 321.116C74.0207 341.876 82.2251 362.529 90.3273 383.35L102.513 414.664C106.309 424.415 109.853 436.293 115.986 444.776C123.386 455.014 139.842 454.684 161.04 454.684C182.239 454.684 204.273 454.09 225.904 454.09C249.161 454.09 272.417 454.085 295.674 454.071C306.35 454.062 315.585 452.12 322.108 442.992C328.496 434.054 329.03 421.879 322.87 412.681C315.037 400.998 302.614 400.923 290.029 400.923H290.038Z" fill="#D75439"/>
<path d="M235.274 230.898L204.696 229.964C180.798 217.622 151.414 225.723 137.245 248.583C113.969 286.136 85.124 340.664 94.1692 367.997C101.63 390.546 124.803 398.982 152.009 393.184C158.717 391.753 165.667 389.458 172.692 386.3C172.692 386.3 198.898 381.538 227.037 368.262C267.669 349.095 315.966 319.067 325.727 317.757C322.559 310.171 303.265 266.277 293.007 245.011C282.489 223.196 254.675 216.395 235.274 230.898Z" fill="#0C133D"/>
<path d="M228.91 252.095C248.097 251.77 254.424 234.382 256.515 223.271C249.133 223.605 241.737 226.072 235.274 230.898L204.696 229.964C197.765 226.388 190.373 224.529 183.028 224.251C186.954 229.904 204.208 252.513 228.91 252.095Z" fill="white"/>
<path d="M135.967 396.246C128.362 396.246 121.338 394.963 115.191 392.409C104.348 387.907 96.6594 379.606 92.9521 368.401C83.8976 341.04 111.451 287.776 136.157 247.91C143.182 236.58 154.127 228.385 166.982 224.836C179.739 221.315 193.24 222.685 205.026 228.692L234.87 229.602C244.371 222.667 256.334 220.293 267.776 223.089C279.362 225.923 288.979 233.709 294.164 244.453C304.663 266.226 323.957 310.19 326.912 317.265C327.065 317.632 327.037 318.05 326.842 318.398C326.642 318.747 326.294 318.979 325.899 319.03C320.937 319.699 304.264 328.841 284.951 339.428C266.986 349.281 246.619 360.444 227.586 369.423C200.743 382.087 175.312 387.108 173.077 387.531C166.104 390.657 159.107 392.98 152.274 394.439C146.629 395.642 141.161 396.241 135.967 396.241V396.246ZM181.221 225.561C164.287 225.561 147.744 234.08 138.336 249.266C123.651 272.962 112.357 294.28 104.771 312.62C94.606 337.203 91.4469 355.701 95.3865 367.602C102.313 388.544 123.907 397.867 151.739 391.939C158.438 390.513 165.31 388.223 172.162 385.139C172.255 385.097 172.357 385.064 172.459 385.046C172.719 384.999 198.838 380.154 226.489 367.11C245.449 358.167 265.778 347.019 283.716 337.189C302.331 326.983 317.365 318.738 323.948 316.852C319.595 306.646 301.783 266.166 291.855 245.578C287.009 235.525 278.011 228.241 267.172 225.589C256.334 222.936 244.989 225.249 236.05 231.93C235.818 232.101 235.535 232.19 235.242 232.185L204.664 231.251C204.473 231.247 204.283 231.196 204.115 231.107C196.836 227.349 188.994 225.561 181.23 225.561H181.221Z" fill="#0C133D"/>
<path d="M273.964 305.633C273.304 305.633 272.742 305.127 272.687 304.453L269.973 271.336C269.918 270.63 270.443 270.012 271.149 269.952C271.855 269.896 272.473 270.421 272.533 271.127L275.246 304.244C275.302 304.95 274.777 305.568 274.071 305.628C274.034 305.628 274.001 305.628 273.964 305.628V305.633Z" fill="white"/>
<path d="M659.904 275.54C659.904 275.54 657.684 240.078 663.811 222.746C670.845 202.84 684.034 181.639 708.522 185.95C719.7 187.919 728.517 195.338 733.024 205.692C739.546 220.688 738.487 239.209 732.74 254.255C732.401 255.142 732.039 256.02 731.635 256.88C723.978 273.157 715.7 280.711 715.7 280.711C715.7 280.711 737.372 290.563 732.35 317.623C727.328 344.682 699.574 382.11 669.67 379.903C639.765 377.697 625.061 335.122 628.174 309.284C631.282 283.447 652.508 271.559 659.909 275.54H659.904Z" fill="#D75439"/>
<path d="M673.777 501.565C673.103 501.565 672.541 501.041 672.499 500.362C672.439 499.359 666.343 399.451 672.499 339.6C678.664 279.693 706.25 203.848 706.529 203.086C706.771 202.422 707.509 202.078 708.174 202.325C708.838 202.566 709.182 203.305 708.936 203.969C708.657 204.726 681.182 280.279 675.05 339.86C668.913 399.502 674.994 499.201 675.05 500.2C675.091 500.906 674.557 501.514 673.846 501.561C673.818 501.561 673.791 501.561 673.767 501.561L673.777 501.565Z" fill="#0C133D"/>
<path d="M651.928 306.469C651.928 306.469 666.78 299.575 680.406 322.301C694.032 345.026 694.274 416.643 660.044 424.494C629.112 431.588 594.028 388.084 588.764 360.574C583.5 333.064 598.334 325.645 603.835 324.93C602.19 325.144 596.759 318.728 595.719 317.716C589.638 311.807 584.053 305.331 579.356 298.265C565.554 277.501 557.429 237.629 585.001 223.684C598.07 217.078 614.715 221.236 625.884 229.848C626.032 229.965 626.186 230.085 626.334 230.201C640.183 241.243 647.091 259.3 650.199 276.232C651.407 282.796 652.062 289.467 652.132 296.142C652.146 297.304 652.727 306.088 651.923 306.464L651.928 306.469Z" fill="white"/>
<path d="M653.214 426.538C645.168 426.538 636.546 423.653 627.9 418.014C618.455 411.849 609.085 402.428 601.521 391.479C594.26 380.972 589.284 370.083 587.51 360.815C585.126 348.366 586.46 338.541 591.463 331.619C594.167 327.88 597.61 325.617 600.55 324.484C599.37 323.462 597.87 321.924 595.853 319.732C595.398 319.239 595.008 318.812 594.827 318.635C588.327 312.318 582.762 305.703 578.288 298.976C569.41 285.621 562.06 262.891 566.906 244.537C569.563 234.475 575.454 227.075 584.425 222.541C598.646 215.35 615.891 220.52 626.669 228.836L627.129 229.193C642.371 241.35 648.778 261.358 651.468 276.005C652.694 282.68 653.349 289.453 653.419 296.133C653.419 296.324 653.442 296.793 653.47 297.392C653.628 300.876 653.67 303.129 653.6 304.611C654.873 304.351 656.197 304.235 656.713 304.216C660.527 304.067 664.313 305.071 667.979 307.194C672.926 310.06 677.479 314.919 681.512 321.641C691.244 337.876 694.246 378.054 683.37 403.594C678.162 415.826 670.195 423.486 660.336 425.748C658.027 426.278 655.644 426.543 653.214 426.543V426.538ZM603.844 323.643C604.481 323.643 605.029 324.112 605.117 324.763C605.21 325.464 604.713 326.11 604.011 326.203C601.233 326.565 596.824 328.595 593.549 333.124C589.038 339.363 587.821 348.77 590.037 360.332C593.252 377.13 608.82 402.494 629.312 415.863C639.969 422.817 650.501 425.367 659.77 423.244C668.922 421.145 676.072 414.195 681.015 402.586C685.92 391.066 688.267 375.676 687.616 359.25C687.021 344.199 683.918 330.63 679.319 322.955C673.986 314.06 667.644 308.597 660.982 307.152C655.997 306.07 652.508 307.616 652.476 307.63C651.983 307.858 651.398 307.747 651.022 307.356C650.641 306.966 650.552 306.376 650.794 305.888C650.827 305.819 650.873 305.754 650.929 305.689C651.133 304.908 651.129 302.158 650.915 297.503C650.887 296.858 650.864 296.389 650.864 296.156C650.799 289.62 650.153 282.996 648.954 276.465C646.343 262.25 640.165 242.855 625.549 231.205L625.108 230.856C614.975 223.038 598.822 218.142 585.596 224.827C577.308 229.017 571.863 235.869 569.401 245.187C564.76 262.775 571.872 284.659 580.439 297.55C584.811 304.123 590.255 310.599 596.629 316.791C596.862 317.019 597.238 317.428 597.758 317.99C600.992 321.511 603.022 323.411 603.802 323.643C603.821 323.643 603.835 323.643 603.853 323.643H603.844ZM651.389 305.303C651.189 305.396 651.059 305.526 650.98 305.628C651.091 305.521 651.235 305.419 651.398 305.326L651.389 305.303Z" fill="#0C133D"/>
<path d="M688.991 426.482C688.991 426.482 694.636 383.596 726.984 347.395C753.112 318.157 798.171 324.651 814.533 328.233C818.185 329.032 820.447 332.706 819.504 336.32C816.071 349.457 803.068 377.139 754.849 369.525C754.849 369.525 770.208 400.152 744.318 412.369C726.074 420.977 704.713 411.78 689.001 426.482H688.991Z" fill="white"/>
<path d="M688.991 427.764C688.792 427.764 688.592 427.718 688.406 427.62C687.923 427.374 687.649 426.849 687.719 426.31C687.779 425.869 689.21 415.278 694.65 400.078C699.667 386.058 709.182 365.391 726.027 346.535C737.502 333.696 753.744 326.189 774.297 324.224C791.216 322.607 806.942 325.255 814.807 326.974C816.921 327.438 818.71 328.707 819.839 330.551C820.968 332.39 821.288 334.55 820.745 336.636C817.771 348.022 807.123 372.099 770.413 372.104C766.269 372.104 761.8 371.797 756.968 371.133C758.933 375.917 762.836 387.684 759.119 398.443C756.833 405.067 752.034 410.14 744.861 413.526C736.857 417.303 728.304 417.749 720.034 418.181C708.982 418.757 698.543 419.301 689.869 427.416C689.628 427.644 689.312 427.764 688.991 427.764ZM785.042 326.24C766.009 326.24 743.56 330.76 727.941 348.245C711.393 366.766 702.032 387.085 697.094 400.872C693.516 410.851 691.681 418.943 690.85 423.254C699.649 416.676 709.925 416.137 719.9 415.621C727.923 415.203 736.22 414.771 743.765 411.208C750.283 408.133 754.631 403.562 756.689 397.621C761.042 385.032 753.772 370.25 753.697 370.101C753.484 369.674 753.525 369.158 753.809 368.768C754.092 368.378 754.571 368.183 755.045 368.257C802.533 375.76 815.072 348.194 818.259 335.995C818.626 334.592 818.408 333.138 817.651 331.898C816.889 330.653 815.685 329.798 814.259 329.487C807.528 328.014 796.954 326.244 785.047 326.244L785.042 326.24Z" fill="#0C133D"/>
<path d="M707.737 561.467H643.101L634.78 460.937H716.053L707.737 561.467Z" fill="#0C133D"/>
<path d="M680.002 509.908C679.291 509.908 678.72 509.332 678.72 508.626C678.72 480.935 687.639 426.817 687.728 426.273C687.844 425.572 688.504 425.102 689.205 425.219C689.907 425.335 690.376 425.994 690.26 426.696C690.171 427.239 681.284 481.149 681.284 508.631C681.284 509.342 680.708 509.913 680.002 509.913V509.908Z" fill="#0C133D"/>
<path d="M669.47 502.476C668.792 502.476 668.229 501.946 668.188 501.263C665.776 457.42 643.389 360.588 631.765 329.241C619.83 297.053 588.727 234.619 588.416 233.992C588.1 233.36 588.355 232.589 588.992 232.273C589.628 231.957 590.395 232.213 590.711 232.849C591.022 233.476 622.19 296.036 634.172 328.349C640.178 344.543 648.583 376.08 656.113 410.651C664.327 448.376 669.665 481.349 670.752 501.119C670.789 501.826 670.25 502.434 669.54 502.471C669.516 502.471 669.493 502.471 669.47 502.471V502.476Z" fill="#0C133D"/>
<path d="M615.119 288.171C615.087 288.171 615.054 288.171 615.022 288.171C614.316 288.115 613.786 287.502 613.842 286.791L616.522 251.756C616.578 251.05 617.191 250.52 617.902 250.576C618.608 250.632 619.138 251.245 619.082 251.951L616.402 286.986C616.351 287.66 615.788 288.171 615.124 288.171H615.119Z" fill="#0C133D"/>
<path d="M650.892 394.606C650.585 394.606 650.274 394.494 650.032 394.271L616.936 364.281C616.411 363.807 616.369 362.994 616.848 362.469C617.322 361.944 618.135 361.902 618.66 362.381L651.756 392.371C652.281 392.845 652.323 393.658 651.844 394.183C651.589 394.462 651.24 394.606 650.892 394.606Z" fill="#0C133D"/>
<path d="M693.187 249.926C692.829 249.926 692.476 249.777 692.225 249.494C691.756 248.964 691.807 248.151 692.336 247.682L713.999 228.557C714.529 228.088 715.342 228.139 715.811 228.668C716.281 229.198 716.229 230.011 715.7 230.48L694.037 249.605C693.79 249.819 693.488 249.926 693.187 249.926Z" fill="#0C133D"/>
<path d="M361.299 393.417L440.156 561.467L536.741 531.324C538.729 530.71 539.64 529.164 539.12 527.463C531.366 502.169 495.71 515.009 495.71 515.009L421.234 370.399L361.299 393.412V393.417Z" fill="white"/>
<path d="M440.152 562.754C439.664 562.754 439.204 562.475 438.99 562.015L360.133 393.965C359.98 393.644 359.971 393.272 360.105 392.943C360.24 392.613 360.505 392.353 360.835 392.223L420.769 369.209C421.383 368.972 422.07 369.237 422.372 369.818L496.342 513.448C500.709 512.05 517.187 507.469 529.169 513.462C534.651 516.203 538.409 520.788 540.342 527.092C541.08 529.493 539.752 531.742 537.113 532.555L440.532 562.698C440.407 562.74 440.277 562.759 440.152 562.759V562.754ZM363.046 394.122L440.839 559.911L536.356 530.102C536.969 529.911 538.344 529.317 537.893 527.844C536.179 522.242 532.857 518.177 528.03 515.762C515.389 509.43 496.332 516.152 496.142 516.221C495.533 516.44 494.86 516.175 494.567 515.604L420.616 372.02L363.042 394.127L363.046 394.122Z" fill="#0C133D"/>
<path d="M440.151 561.467L536.736 531.323C538.725 530.71 539.635 529.163 539.115 527.463C531.361 502.169 495.705 515.009 495.705 515.009L495.19 513.95L427.733 535.003L440.151 561.463V561.467Z" fill="#0C133D"/>
<path d="M376.942 377.58L519.849 496.07L594.409 427.676C595.946 426.273 596.114 424.485 594.92 423.17C577.136 403.585 550.339 430.384 550.339 430.384L421.378 331.243L376.946 377.58H376.942Z" fill="white"/>
<path d="M519.844 497.352C519.556 497.352 519.264 497.254 519.027 497.055L376.124 378.565C375.85 378.337 375.682 378.008 375.664 377.65C375.645 377.292 375.771 376.944 376.017 376.688L420.449 330.351C420.904 329.877 421.638 329.821 422.158 330.221L550.246 428.693C553.554 425.613 566.195 414.725 579.384 414.725C579.575 414.725 579.765 414.725 579.956 414.729C586.083 414.878 591.44 417.424 595.867 422.306C597.558 424.169 597.312 426.765 595.273 428.624L520.718 497.013C520.472 497.236 520.16 497.352 519.849 497.352H519.844ZM378.818 377.473L519.798 494.37L593.531 426.733C594.004 426.301 594.994 425.177 593.958 424.034C590.018 419.695 585.289 417.433 579.891 417.298C579.723 417.298 579.552 417.294 579.38 417.294C565.415 417.294 551.375 431.151 551.231 431.29C550.776 431.745 550.051 431.792 549.54 431.402L421.49 332.962L378.809 377.473H378.818Z" fill="#0C133D"/>
<path d="M519.845 496.07L594.404 427.676C595.942 426.273 596.109 424.485 594.915 423.17C577.131 403.585 550.335 430.384 550.335 430.384L549.419 429.646L497.345 477.414L519.849 496.07H519.845Z" fill="#0C133D"/>
<path d="M219.474 218.995C234.574 218.553 246.457 205.953 246.014 190.853C245.571 175.754 232.97 163.872 217.87 164.315C202.769 164.758 190.886 177.358 191.329 192.457C191.772 207.557 204.373 219.438 219.474 218.995Z" fill="#0C133D"/>
<path d="M204.654 213.864C211.767 210.407 216.538 198.274 216.599 197.693C217.091 192.89 213.235 179.539 213.235 179.539C213.235 179.539 229.983 172.599 235.516 174.099C238.624 174.945 242.499 180.974 243.01 183.604C243.274 184.951 245.644 191.236 246.192 200.155C246.986 212.995 248.733 220.832 235.27 222.755V235.581H204.65V213.864H204.654Z" fill="white"/>
<path d="M235.274 233.616C234.564 233.616 233.992 233.04 233.992 232.334V222.76C233.992 222.123 234.461 221.58 235.093 221.491C246.28 219.893 245.895 214.338 245.119 203.268C245.049 202.292 244.979 201.279 244.914 200.239C244.482 193.266 242.917 187.938 242.164 185.374C241.955 184.658 241.816 184.184 241.751 183.855C241.281 181.444 237.565 175.99 235.181 175.344C231.279 174.285 219.99 178.234 214.782 180.306C215.707 183.669 218.308 193.624 217.876 197.832C217.806 198.511 213.295 210.459 205.937 214.649V231.772C205.937 232.482 205.365 233.054 204.654 233.054C203.943 233.054 203.372 232.478 203.372 231.772V213.878C203.372 213.385 203.651 212.939 204.092 212.726C210.42 209.65 214.94 198.827 215.33 197.503C215.669 193.703 213.049 183.534 212.004 179.911C211.823 179.284 212.143 178.619 212.747 178.368C214.503 177.639 230.066 171.307 235.855 172.873C239.674 173.909 243.706 180.477 244.273 183.371C244.315 183.585 244.459 184.082 244.631 184.663C245.411 187.315 247.028 192.829 247.479 200.09C247.544 201.126 247.613 202.129 247.683 203.1C248.436 213.826 248.984 221.659 236.561 223.865V232.348C236.561 233.058 235.985 233.63 235.279 233.63L235.274 233.616ZM215.326 197.544C215.326 197.544 215.326 197.554 215.326 197.563C215.326 197.558 215.326 197.554 215.326 197.544Z" fill="#0C133D"/>
<path d="M231.005 224.265C226.285 224.265 223.46 223.428 223.312 223.387C222.633 223.182 222.248 222.467 222.457 221.789C222.661 221.11 223.377 220.725 224.055 220.934C224.097 220.948 228.371 222.188 235.14 221.487C235.846 221.412 236.478 221.923 236.547 222.629C236.622 223.335 236.111 223.967 235.404 224.037C233.802 224.204 232.329 224.269 231.005 224.269V224.265Z" fill="#0C133D"/>
<path d="M235.586 226.016C235.586 226.016 235.089 230.434 231.14 230.907C227.186 231.381 223.683 222.156 223.683 222.156L235.274 222.755L235.59 226.016H235.586Z" fill="#0C133D"/>
<path d="M215.459 207.467C218.91 205.44 220.065 201 218.039 197.548C216.012 194.097 211.571 192.942 208.119 194.968C204.668 196.995 203.513 201.436 205.539 204.887C207.566 208.338 212.007 209.493 215.459 207.467Z" fill="white"/>
<path d="M213.286 203.597C212.947 203.597 212.608 203.463 212.357 203.202L209.207 199.9C208.719 199.389 208.738 198.576 209.249 198.083C209.76 197.595 210.573 197.614 211.065 198.125L214.215 201.428C214.703 201.939 214.684 202.752 214.173 203.244C213.927 203.481 213.607 203.597 213.286 203.597Z" fill="#0C133D"/>
<path d="M236.807 209.367C236.738 209.367 236.668 209.362 236.594 209.348C233.806 208.884 232.348 206.152 232.287 206.036C231.957 205.409 232.199 204.633 232.831 204.303C233.458 203.974 234.229 204.215 234.559 204.838C234.582 204.88 235.511 206.566 237.016 206.817C237.718 206.933 238.187 207.592 238.071 208.294C237.964 208.921 237.421 209.367 236.807 209.367Z" fill="#0C133D"/>
<path d="M230.638 195.449C230.68 196.406 229.941 197.215 228.984 197.256C228.027 197.298 227.219 196.56 227.177 195.603C227.135 194.646 227.874 193.837 228.831 193.796C229.788 193.754 230.596 194.492 230.638 195.449Z" fill="#0C133D"/>
<path d="M243.892 193.554C243.934 194.511 243.195 195.319 242.238 195.361C241.281 195.403 240.473 194.664 240.431 193.707C240.389 192.75 241.128 191.942 242.085 191.9C243.042 191.859 243.85 192.597 243.892 193.554Z" fill="#0C133D"/>
<path d="M230.485 183.708C234.977 181.762 237.041 176.543 235.096 172.051C233.15 167.56 227.931 165.496 223.439 167.441C218.946 169.387 216.882 174.605 218.828 179.097C220.774 183.589 225.993 185.653 230.485 183.708Z" fill="#0C133D"/>
<path d="M245.935 179.185C248.872 175.268 248.077 169.713 244.16 166.777C240.243 163.84 234.687 164.635 231.751 168.551C228.814 172.468 229.609 178.023 233.526 180.96C237.443 183.896 242.999 183.102 245.935 179.185Z" fill="#0C133D"/>
<path d="M230.965 175.448C236.267 174.627 239.899 169.664 239.078 164.363C238.258 159.061 233.294 155.429 227.992 156.25C222.69 157.071 219.058 162.034 219.879 167.335C220.699 172.636 225.663 176.269 230.965 175.448Z" fill="#0C133D"/>
<path d="M229.611 176.44C226.982 176.44 224.436 175.595 222.294 173.992C219.679 172.032 217.983 169.17 217.523 165.933C217.058 162.695 217.885 159.476 219.846 156.86C221.806 154.245 224.668 152.549 227.906 152.089C231.14 151.625 234.364 152.452 236.979 154.412C239.595 156.372 241.291 159.234 241.751 162.472C242.215 165.71 241.388 168.929 239.428 171.544C237.467 174.16 234.605 175.855 231.367 176.315C230.782 176.399 230.192 176.44 229.611 176.44ZM220.064 165.57C220.431 168.125 221.769 170.388 223.837 171.939C225.904 173.491 228.45 174.141 231.005 173.774C233.56 173.407 235.823 172.069 237.374 170.002C238.926 167.935 239.576 165.389 239.209 162.834C238.842 160.279 237.504 158.017 235.437 156.465C233.37 154.914 230.824 154.263 228.269 154.63C225.713 154.997 223.451 156.335 221.899 158.402C220.348 160.47 219.697 163.015 220.064 165.57Z" fill="#0C133D"/>
<path d="M221.517 185.492C224.108 182.038 223.407 177.137 219.952 174.547C216.497 171.957 211.596 172.658 209.006 176.113C206.415 179.568 207.116 184.468 210.571 187.058C214.026 189.648 218.927 188.947 221.517 185.492Z" fill="#0C133D"/>
<path d="M113.751 339.734C113.5 339.734 113.245 339.66 113.022 339.507C112.441 339.103 112.297 338.304 112.701 337.723C112.919 337.407 118.169 329.942 130.09 321.557C141.04 313.85 159.939 303.914 187.776 300.332C188.478 300.24 189.124 300.737 189.212 301.443C189.3 302.144 188.808 302.79 188.101 302.878C160.854 306.385 142.378 316.071 131.679 323.578C120.083 331.712 114.857 339.117 114.806 339.191C114.555 339.549 114.155 339.739 113.751 339.739V339.734Z" fill="white"/>
<path d="M172.687 387.586C172.269 387.586 171.86 387.382 171.614 387.01C171.223 386.42 171.386 385.621 171.981 385.231C172.06 385.18 179.995 379.917 188.431 371.346C196.162 363.491 205.913 351.167 208.478 337.054C208.603 336.357 209.272 335.893 209.969 336.023C210.666 336.148 211.13 336.817 211 337.514C208.315 352.286 198.22 365.066 190.22 373.186C181.597 381.938 173.723 387.159 173.393 387.373C173.175 387.517 172.933 387.582 172.687 387.582V387.586Z" fill="white"/>
<path d="M265.081 280.469C248.942 277.027 229.383 281.277 224.055 282.634C220.663 283.493 193.058 298.707 173.402 309.674C162.443 315.788 158.624 329.7 164.924 340.557C171.925 352.621 188.12 355.45 198.796 346.479L209.741 337.282C210.768 337.389 211.883 337.389 213.096 337.258C218.582 336.664 221.676 334.127 223.404 331.726C228.854 336.069 237.393 341.416 242.471 337.258C244.268 335.791 244.473 333.668 243.73 331.275C248.292 332.311 252.742 332.093 256.268 329.459C259.098 327.345 259.999 324.814 259.702 322.166C263.488 323.169 266.944 322.779 269.393 319.894C278.847 308.75 250.09 294.674 250.09 294.674C250.09 294.674 257.788 295.394 264.245 296.765C270.703 298.135 278.6 303.765 283.557 296.839C288.519 289.913 281.23 283.911 265.086 280.469H265.081Z" fill="white"/>
<path d="M184.362 353.03C182.996 353.03 181.621 352.913 180.255 352.672C173.333 351.459 167.335 347.279 163.809 341.202C160.589 335.651 159.748 329.185 161.449 322.997C163.149 316.81 167.168 311.681 172.775 308.555C203.827 291.232 220.97 282.09 223.739 281.389C227.688 280.385 248.254 275.568 265.351 279.215C273.458 280.943 283.609 284.25 285.904 290.173C286.545 291.827 286.837 294.456 284.598 297.582C280.292 303.594 273.899 301.327 268.761 299.506C267.07 298.906 265.476 298.34 263.971 298.019C261.472 297.489 258.763 297.053 256.398 296.723C262.368 300.365 271.009 306.655 272.38 313.223C272.951 315.95 272.268 318.473 270.359 320.721C268.092 323.392 264.951 324.409 261.007 323.759C260.826 326.384 259.493 328.641 257.026 330.481C253.95 332.776 250.034 333.584 245.365 332.883C245.639 335.614 244.45 337.282 243.274 338.243C237.96 342.591 229.839 338.271 223.609 333.51C221.718 335.665 218.503 337.955 213.226 338.527C212.171 338.643 211.14 338.666 210.155 338.596L199.618 347.45C195.302 351.079 189.904 353.02 184.362 353.02V353.03ZM251.265 280.432C238.768 280.432 227.195 283.159 224.366 283.879C221.922 284.501 203.572 294.312 174.02 310.798C169.021 313.586 165.435 318.161 163.92 323.68C162.406 329.199 163.154 334.964 166.025 339.916C169.17 345.337 174.517 349.067 180.691 350.145C186.866 351.223 193.161 349.532 197.96 345.499L208.905 336.302C209.17 336.079 209.518 335.972 209.862 336.009C210.838 336.111 211.874 336.102 212.947 335.986C217.123 335.535 220.287 333.849 222.35 330.978C222.554 330.695 222.87 330.504 223.219 330.453C223.567 330.407 223.92 330.5 224.194 330.722C228.78 334.378 237.142 339.957 241.648 336.269C242.429 335.633 243.367 334.457 242.494 331.661C242.359 331.224 242.466 330.746 242.777 330.407C243.088 330.067 243.558 329.923 244.004 330.026C248.766 331.108 252.631 330.569 255.493 328.432C257.736 326.755 258.693 324.753 258.415 322.31C258.368 321.887 258.531 321.469 258.851 321.195C259.172 320.916 259.609 320.819 260.018 320.925C263.753 321.919 266.498 321.311 268.398 319.067C269.788 317.427 270.266 315.69 269.862 313.758C268.031 305.001 249.695 295.924 249.509 295.831C248.951 295.557 248.668 294.925 248.84 294.331C249.007 293.736 249.579 293.341 250.196 293.402C250.275 293.411 258.043 294.14 264.501 295.515C266.168 295.868 267.92 296.491 269.616 297.095C275.655 299.236 279.539 300.24 282.508 296.101C283.79 294.312 284.115 292.677 283.511 291.111C282.062 287.377 275.251 283.958 264.817 281.732C260.426 280.794 255.785 280.441 251.27 280.441L251.265 280.432Z" fill="#0C133D"/>
<path d="M243.725 332.557C243.321 332.557 242.921 332.367 242.67 332.009C236.789 323.587 223.13 314.803 222.991 314.719C222.392 314.338 222.22 313.544 222.601 312.945C222.982 312.345 223.776 312.173 224.371 312.554C224.947 312.921 238.596 321.696 244.77 330.541C245.174 331.122 245.035 331.921 244.454 332.33C244.231 332.488 243.976 332.562 243.72 332.562L243.725 332.557Z" fill="#0C133D"/>
<path d="M259.692 323.448C259.274 323.448 258.865 323.243 258.619 322.867C252.408 313.386 235.218 304.787 233.551 304.323C232.914 304.248 232.417 303.705 232.417 303.05C232.417 302.339 232.993 301.768 233.699 301.768C234.828 301.768 240.459 304.662 245.286 307.728C250.34 310.938 257.132 315.922 260.761 321.464C261.151 322.059 260.984 322.853 260.389 323.239C260.171 323.383 259.929 323.448 259.688 323.448H259.692Z" fill="#0C133D"/>
<path d="M250.08 295.961C249.811 295.961 249.537 295.878 249.304 295.696C249.267 295.669 245.588 292.877 243.293 292.059C242.624 291.822 242.275 291.088 242.517 290.419C242.759 289.75 243.488 289.402 244.157 289.644C246.828 290.596 250.698 293.536 250.861 293.657C251.423 294.085 251.534 294.893 251.102 295.455C250.851 295.785 250.466 295.961 250.08 295.961Z" fill="#0C133D"/>
<path d="M226.322 188.644C225.681 188.644 225.128 188.165 225.049 187.515C224.965 186.814 225.467 186.173 226.169 186.089L246.201 183.678C246.907 183.594 247.544 184.096 247.627 184.798C247.711 185.499 247.209 186.14 246.508 186.224L226.475 188.635C226.424 188.639 226.373 188.644 226.322 188.644Z" fill="#D75439"/>
<path d="M247.386 203.57C242.41 203.57 238.09 199.839 237.481 194.781C236.821 189.318 240.733 184.333 246.201 183.678C248.849 183.358 251.46 184.092 253.56 185.736C255.655 187.38 256.988 189.75 257.304 192.393C257.964 197.856 254.052 202.84 248.584 203.495C248.18 203.542 247.781 203.57 247.386 203.57ZM247.409 186.168C247.112 186.168 246.81 186.187 246.508 186.224C242.447 186.712 239.544 190.414 240.032 194.474C240.482 198.232 243.692 201.005 247.39 201.005C247.683 201.005 247.98 200.987 248.282 200.95C252.343 200.462 255.246 196.759 254.759 192.699C254.522 190.734 253.532 188.974 251.976 187.752C250.656 186.716 249.063 186.168 247.409 186.168Z" fill="#D75439"/>
<path d="M227.353 205.981C222.378 205.981 218.057 202.25 217.449 197.191C216.789 191.728 220.701 186.744 226.169 186.089C231.637 185.434 236.617 189.341 237.272 194.808C237.932 200.271 234.02 205.256 228.552 205.911C228.148 205.957 227.748 205.985 227.353 205.985V205.981ZM227.367 188.579C227.075 188.579 226.777 188.598 226.475 188.635C222.415 189.122 219.511 192.825 219.999 196.885C220.487 200.945 224.19 203.853 228.25 203.361C232.31 202.873 235.214 199.17 234.726 195.11C234.275 191.348 231.065 188.579 227.367 188.579Z" fill="#D75439"/>
<path d="M240.329 204.276C239.762 204.276 239.242 203.895 239.088 203.319L236.138 192.184C235.957 191.501 236.366 190.795 237.049 190.614C237.732 190.432 238.438 190.841 238.619 191.524L241.569 202.659C241.75 203.342 241.342 204.048 240.659 204.229C240.547 204.257 240.436 204.271 240.329 204.271V204.276Z" fill="#0C133D"/>
<path d="M268.259 328.553C268.208 327.782 268.236 326.992 268.384 326.193L279.144 267.778C279.966 263.323 283.85 260.09 288.38 260.09H386.707C392.574 260.09 397.006 265.409 395.943 271.183L385.183 329.599C384.361 334.053 380.477 337.287 375.947 337.287H215.832C213.421 337.287 211.465 335.331 211.465 332.92C211.465 330.509 213.421 328.553 215.832 328.553H268.259Z" fill="white"/>
<path d="M375.943 338.569H215.827C212.71 338.569 210.178 336.032 210.178 332.92C210.178 329.807 212.715 327.271 215.827 327.271H266.963C266.986 326.83 267.037 326.388 267.116 325.961L277.876 267.546C278.81 262.482 283.223 258.803 288.375 258.803H386.702C389.88 258.803 392.872 260.206 394.907 262.645C396.941 265.088 397.778 268.28 397.202 271.406L386.442 329.821C385.508 334.885 381.095 338.564 375.943 338.564V338.569ZM215.827 329.835C214.127 329.835 212.742 331.22 212.742 332.92C212.742 334.62 214.127 336.004 215.827 336.004H375.943C379.854 336.004 383.209 333.213 383.915 329.366L394.674 270.951C395.111 268.577 394.475 266.152 392.932 264.294C391.385 262.44 389.118 261.377 386.702 261.377H288.375C284.463 261.377 281.109 264.168 280.403 268.015L269.643 326.43C269.523 327.081 269.486 327.768 269.537 328.47C269.56 328.823 269.439 329.176 269.193 329.431C268.951 329.691 268.612 329.84 268.254 329.84H215.827V329.835Z" fill="#0C133D"/>
<path d="M332.161 310.25C338.547 310.25 343.725 305.074 343.725 298.688C343.725 292.302 338.547 287.126 332.161 287.126C325.775 287.126 320.598 292.302 320.598 298.688C320.598 305.074 325.775 310.25 332.161 310.25Z" fill="#D75439"/>
<path d="M512.96 383.331L425.987 315.23C398.103 293.397 359.808 290.535 328.988 307.979L225.695 366.446C225.695 366.446 176.176 385.152 172.692 386.295C180.278 413.28 203.135 430.013 232.538 428.475C232.942 428.452 233.342 428.429 233.751 428.401C266.117 426.245 313.007 403.878 330.577 394.959L390.094 521.257L502.2 490.036C502.2 490.036 491.25 468.198 477.503 440.911C483.478 428.981 512.969 383.322 512.969 383.322L512.96 383.331Z" fill="white"/>
<path d="M390.084 522.548C389.597 522.548 389.141 522.27 388.923 521.81L329.973 396.701C310.768 406.382 265.551 427.569 233.83 429.683C233.416 429.711 233.007 429.734 232.598 429.757C217.978 430.519 204.52 426.845 193.686 419.129C182.968 411.496 175.279 400.264 171.451 386.644C171.265 385.984 171.632 385.292 172.287 385.078C175.637 383.977 222.731 366.195 225.147 365.279L328.356 306.859C343.701 298.172 361.104 294.28 378.684 295.594C396.268 296.909 412.895 303.347 426.776 314.218L513.749 382.319C514.27 382.727 514.395 383.466 514.037 384.024C513.749 384.474 485.415 428.359 478.93 440.92C492.384 467.626 503.227 489.246 503.334 489.464C503.505 489.808 503.515 490.207 503.361 490.56C503.208 490.909 502.902 491.174 502.534 491.276L390.428 522.497C390.312 522.53 390.196 522.544 390.084 522.544V522.548ZM330.572 393.681C330.712 393.681 330.851 393.704 330.991 393.751C331.32 393.862 331.585 394.104 331.734 394.42L390.786 519.743L500.346 489.232C497.717 483.992 487.979 464.597 476.351 441.505C476.17 441.143 476.17 440.716 476.351 440.353C481.875 429.325 506.818 390.504 511.255 383.629L425.202 316.248C397.624 294.656 360.105 291.85 329.625 309.103L226.331 367.57C226.276 367.602 226.215 367.63 226.155 367.653C224.259 368.369 182.424 384.172 174.266 387.113C182.15 413.34 204.348 428.67 232.473 427.202C232.868 427.184 233.267 427.156 233.667 427.133C265.583 425.01 311.669 403.135 329.996 393.825C330.178 393.732 330.377 393.686 330.577 393.686L330.572 393.681Z" fill="#0C133D"/>
<path d="M477.494 442.207C477.025 442.207 476.574 441.947 476.347 441.501L456.379 401.89C442.303 373.962 408.844 361.944 380.212 374.538L331.088 396.143C330.438 396.427 329.681 396.134 329.397 395.484C329.114 394.833 329.406 394.076 330.057 393.793L379.181 372.187C409.062 359.045 443.98 371.583 458.674 400.733L478.642 440.344C478.962 440.976 478.707 441.747 478.075 442.067C477.889 442.16 477.694 442.207 477.499 442.207H477.494Z" fill="#0C133D"/>
<path d="M146.285 420.155C146.285 420.155 204.691 387.935 287.135 426.032L289.541 440.888L147.382 445.505L146.285 420.155Z" fill="#D75439"/>
<path d="M287.135 427.314C286.954 427.314 286.772 427.277 286.596 427.193C244.348 407.668 208.626 407.097 186.095 410.056C161.672 413.266 147.052 421.196 146.908 421.275C146.285 421.619 145.505 421.391 145.166 420.768C144.822 420.146 145.049 419.366 145.667 419.026C146.271 418.692 160.766 410.818 185.63 407.529C200.204 405.601 215.312 405.68 230.526 407.766C249.527 410.367 268.756 416.118 287.678 424.866C288.319 425.163 288.603 425.925 288.306 426.57C288.087 427.04 287.623 427.314 287.139 427.314H287.135Z" fill="#0C133D"/>
<path d="M173.765 492.771H46.0068V515.668H173.765V492.771Z" fill="#0C133D"/>
<path d="M175.693 538.57H40.3807V561.467H175.693V538.57Z" fill="#8FC1E8"/>
<path d="M63.6931 460.054C63.6931 467.115 69.4167 472.838 76.4782 472.838C80.5432 472.838 84.1622 470.938 86.5037 467.979L89.0589 487.973C89.4073 490.714 91.7441 492.772 94.5083 492.772H121.625C124.39 492.772 126.727 490.718 127.075 487.973L132.799 443.154C133.217 439.87 130.661 436.967 127.349 436.967H88.7848C85.4723 436.967 82.9172 439.875 83.3353 443.154L84.1901 449.858C82.0484 448.232 79.3771 447.27 76.4782 447.27C69.4167 447.27 63.6931 452.993 63.6931 460.054ZM71.1124 460.054C71.1124 457.091 73.5142 454.689 76.4782 454.689C79.4422 454.689 81.844 457.091 81.844 460.054C81.844 463.018 79.4422 465.42 76.4782 465.42C73.5142 465.42 71.1124 463.018 71.1124 460.054Z" fill="white"/>
<path d="M121.621 494.054H94.5037C91.103 494.054 88.2133 491.508 87.7813 488.135L85.5653 470.785C83.0473 472.927 79.851 474.116 76.4736 474.116C68.7152 474.116 62.4062 467.807 62.4062 460.05C62.4062 452.292 68.7152 445.983 76.4736 445.983C78.6199 445.983 80.6872 446.457 82.5734 447.368L82.0531 443.312C81.8069 441.38 82.4015 439.438 83.6884 437.975C84.9753 436.516 86.8289 435.675 88.7755 435.675H127.34C129.286 435.675 131.14 436.511 132.427 437.975C133.714 439.433 134.308 441.38 134.062 443.312L128.339 488.131C127.907 491.503 125.017 494.049 121.616 494.049L121.621 494.054ZM86.5037 466.697C86.6199 466.697 86.736 466.711 86.8475 466.744C87.3446 466.883 87.7116 467.306 87.7766 467.817L90.3318 487.81C90.6013 489.905 92.3945 491.485 94.5083 491.485H121.626C123.739 491.485 125.533 489.905 125.802 487.81L131.526 442.992C131.679 441.793 131.307 440.585 130.508 439.675C129.709 438.769 128.557 438.249 127.349 438.249H88.7848C87.5769 438.249 86.4247 438.769 85.6257 439.675C84.8266 440.581 84.4549 441.789 84.6082 442.992L85.4631 449.695C85.5281 450.206 85.2819 450.708 84.8312 450.968C84.3853 451.228 83.8231 451.191 83.4143 450.88C81.4027 449.356 79.0055 448.552 76.4782 448.552C70.1368 448.552 64.98 453.709 64.98 460.05C64.98 466.39 70.1368 471.551 76.4782 471.551C80.0136 471.551 83.2981 469.958 85.5002 467.18C85.7465 466.869 86.1228 466.692 86.5084 466.692L86.5037 466.697ZM76.4782 466.702C72.8127 466.702 69.8301 463.719 69.8301 460.054C69.8301 456.389 72.8127 453.407 76.4782 453.407C80.1437 453.407 83.1263 456.389 83.1263 460.054C83.1263 463.719 80.1437 466.702 76.4782 466.702ZM76.4782 455.976C74.2297 455.976 72.3992 457.806 72.3992 460.054C72.3992 462.303 74.2297 464.133 76.4782 464.133C78.7267 464.133 80.5572 462.303 80.5572 460.054C80.5572 457.806 78.7267 455.976 76.4782 455.976Z" fill="#0C133D"/>
<path d="M74.3969 492.771H60.8778V515.668H74.3969V492.771Z" fill="#D75439"/>
<path d="M163.377 515.668H28.0649V538.566H163.377V515.668Z" fill="white"/>
<path d="M163.372 539.852H28.0649C27.3541 539.852 26.7827 539.276 26.7827 538.57V515.673C26.7827 514.962 27.3588 514.391 28.0649 514.391H163.377C164.088 514.391 164.659 514.967 164.659 515.673V538.57C164.659 539.281 164.083 539.852 163.377 539.852H163.372ZM29.3472 537.288H162.09V516.955H29.3472V537.288Z" fill="#0C133D"/>
<path d="M109.886 526.093H46.0068C45.296 526.093 44.7246 525.517 44.7246 524.811C44.7246 524.105 45.3007 523.529 46.0068 523.529H109.886C110.597 523.529 111.168 524.105 111.168 524.811C111.168 525.517 110.592 526.093 109.886 526.093Z" fill="#0C133D"/>
<path d="M128.334 532.55H103.047C102.336 532.55 101.765 531.974 101.765 531.268C101.765 530.562 102.341 529.986 103.047 529.986H128.334C129.045 529.986 129.616 530.562 129.616 531.268C129.616 531.974 129.04 532.55 128.334 532.55Z" fill="#0C133D"/>
<path d="M172.687 305.633C172.027 305.633 171.465 305.127 171.409 304.453L168.696 271.336C168.64 270.63 169.165 270.012 169.872 269.952C170.578 269.896 171.196 270.421 171.256 271.127L173.969 304.244C174.025 304.95 173.5 305.568 172.794 305.628C172.757 305.628 172.724 305.628 172.687 305.628V305.633Z" fill="white"/>
<mask id="mask0_1_649" style="mask-type:luminance" maskUnits="userSpaceOnUse" x="634" y="460" width="83" height="102">
<path d="M707.737 561.467H643.101L634.78 460.937H716.053L707.737 561.467Z" fill="white"/>
</mask>
<g mask="url(#mask0_1_649)">
<path d="M709.897 536.624C709.772 536.624 709.646 536.606 709.521 536.568C709.372 536.522 705.786 535.398 701.828 531.51C698.236 527.984 693.6 521.387 691.914 509.969C690.153 498.054 693.628 484.777 701.958 471.58C708.215 461.666 714.891 455.367 715.17 455.103C715.686 454.619 716.499 454.643 716.982 455.163C717.465 455.679 717.442 456.492 716.922 456.975C716.857 457.035 710.171 463.353 704.09 473.001C698.529 481.827 692.341 495.336 694.446 509.593C696.016 520.212 700.239 526.311 703.505 529.563C707.031 533.07 710.241 534.106 710.269 534.116C710.943 534.329 711.324 535.045 711.114 535.718C710.943 536.266 710.436 536.624 709.893 536.624H709.897Z" fill="white"/>
<path d="M684.494 567C683.839 567 683.277 566.498 683.217 565.834C682.557 558.643 680.541 536.759 676.137 518.591C671.356 498.866 665.029 488.647 657.828 488.995C640.434 489.873 635.654 520.449 635.607 520.76C635.5 521.462 634.85 521.94 634.148 521.838C633.447 521.731 632.964 521.081 633.071 520.379C633.122 520.045 634.33 512.138 637.879 503.981C642.697 492.911 649.554 486.844 657.702 486.431C662.552 486.185 666.906 489.348 670.65 495.833C673.642 501.013 676.327 508.468 678.636 517.982C683.082 536.331 685.108 558.355 685.777 565.597C685.842 566.303 685.321 566.926 684.615 566.991C684.573 566.991 684.536 566.996 684.494 566.996V567Z" fill="white"/>
<path d="M664.778 481.693C658.041 481.693 650.436 478.933 642.404 473.517C634.376 468.11 628.806 462.052 628.569 461.796C628.09 461.272 628.128 460.463 628.648 459.985C629.168 459.506 629.981 459.543 630.46 460.064C630.678 460.305 652.578 483.927 670.622 478.255C688.713 472.569 693.776 447.661 693.823 447.41C693.958 446.713 694.631 446.262 695.328 446.397C696.025 446.532 696.476 447.205 696.341 447.902C696.29 448.172 695.008 454.619 691.333 461.903C686.413 471.649 679.519 478.153 671.389 480.708C669.298 481.367 667.082 481.693 664.769 481.693H664.778Z" fill="white"/>
</g>
<path d="M739.588 562.75H12.0743C11.3635 562.75 10.7921 562.174 10.7921 561.467C10.7921 560.761 11.3682 560.185 12.0743 560.185H739.593C740.304 560.185 740.875 560.761 740.875 561.467C740.875 562.174 740.299 562.75 739.593 562.75H739.588Z" fill="#0C133D"/>
<path d="M618.655 90.1851H474.484C474.024 90.1851 473.601 89.9389 473.373 89.5441C473.146 89.1492 473.141 88.6568 473.373 88.262C473.536 87.9832 477.382 81.345 484.351 74.075C490.813 67.3346 501.271 58.8196 514.367 56.5341C529.577 53.8862 539.287 59.7254 542.674 62.2757C544.43 58.866 549.419 50.3 558.883 42.1474C565.879 36.1177 573.87 31.5838 582.636 28.6758C593.572 25.0477 605.74 23.9514 618.799 25.424C619.449 25.4983 619.937 26.0465 619.937 26.6969V88.8984C619.937 89.6091 619.361 90.1805 618.655 90.1805V90.1851ZM476.802 87.6209H617.373V27.8535C589.377 25.0245 571.096 35.0399 560.643 44.0148C549.136 53.9001 544.337 64.7099 544.29 64.8168C544.123 65.2023 543.779 65.481 543.366 65.5647C542.957 65.6483 542.53 65.5229 542.228 65.2348C542.13 65.1419 532.272 56.0231 514.804 59.0658C502.414 61.2259 492.435 69.3599 486.242 75.8077C481.67 80.5692 478.432 85.1356 476.797 87.6209H476.802Z" fill="#0C133D"/>
<path d="M507.552 191.222H418.563C417.852 191.222 417.281 190.646 417.281 189.94C417.281 189.234 417.857 188.658 418.563 188.658H505.582C503.269 183.78 495.71 170.337 482.693 170.337C475.998 170.337 470.075 172.153 465.081 175.739C461.345 178.424 459.557 181.156 459.543 181.179C459.278 181.588 458.8 181.815 458.316 181.76C457.829 181.704 457.42 181.379 457.252 180.914C452.133 166.499 444.156 157.52 433.541 154.226C425.624 151.769 419.092 153.557 419.027 153.576C418.344 153.767 417.638 153.372 417.443 152.693C417.248 152.011 417.643 151.304 418.326 151.109C418.618 151.026 425.55 149.103 434.168 151.736C441.764 154.059 452.072 160.498 458.865 177.885C461.842 174.485 469.401 167.768 482.693 167.768C490.019 167.768 496.857 171.549 502.474 178.703C506.646 184.017 508.662 189.262 508.746 189.48C508.895 189.875 508.843 190.316 508.602 190.665C508.36 191.013 507.965 191.217 507.547 191.217L507.552 191.222Z" fill="#0C133D"/>
<path d="M523.854 342.099C514.158 342.099 506.265 334.211 506.265 324.516C506.265 314.821 514.153 306.929 523.854 306.929C533.554 306.929 541.443 314.817 541.443 324.516C541.443 334.216 533.554 342.099 523.854 342.099ZM523.854 309.493C515.57 309.493 508.834 316.229 508.834 324.512C508.834 332.794 515.57 339.53 523.854 339.53C532.137 339.53 538.874 332.794 538.874 324.512C538.874 316.229 532.137 309.493 523.854 309.493Z" fill="#0C133D"/>
<path d="M227.186 125.165C226.856 125.165 226.531 125.039 226.28 124.789L208.111 106.621C207.609 106.119 207.609 105.306 208.111 104.804C208.612 104.303 209.425 104.303 209.927 104.804L228.097 122.972C228.598 123.474 228.598 124.287 228.097 124.789C227.846 125.039 227.516 125.165 227.191 125.165H227.186Z" fill="#0C133D"/>
<path d="M209.012 125.165C208.682 125.165 208.357 125.039 208.106 124.789C207.604 124.287 207.604 123.474 208.106 122.972L226.276 104.804C226.777 104.303 227.59 104.303 228.092 104.804C228.594 105.306 228.594 106.119 228.092 106.621L209.923 124.789C209.672 125.039 209.342 125.165 209.017 125.165H209.012Z" fill="#0C133D"/>
<path d="M187.4 78.45C202.091 78.45 214 66.5408 214 51.85C214 37.1592 202.091 25.25 187.4 25.25C172.709 25.25 160.8 37.1592 160.8 51.85C160.8 66.5408 172.709 78.45 187.4 78.45Z" fill="#D75439"/>
<path d="M187.4 79.22C172.31 79.22 160.04 66.94 160.04 51.86C160.04 36.78 172.32 24.5 187.4 24.5C202.48 24.5 214.76 36.78 214.76 51.86C214.76 66.94 202.48 79.22 187.4 79.22ZM187.4 26.03C173.16 26.03 161.57 37.62 161.57 51.86C161.57 66.1 173.16 77.69 187.4 77.69C201.64 77.69 213.23 66.1 213.23 51.86C213.23 37.62 201.64 26.03 187.4 26.03Z" fill="#0C133D"/>
<path d="M172.23 30.19L178.66 33.71L172.23 37.23L168.71 43.66L165.19 37.23L158.76 33.71L165.19 30.19L168.71 23.76L172.23 30.19Z" fill="white"/>
<path d="M168.71 44.42C168.43 44.42 168.17 44.27 168.04 44.02L164.63 37.79L158.4 34.38C158.15 34.25 158 33.99 158 33.71C158 33.43 158.15 33.17 158.4 33.04L164.63 29.63L168.04 23.4C168.17 23.15 168.43 23 168.71 23C168.99 23 169.25 23.15 169.38 23.4L172.79 29.63L179.02 33.04C179.27 33.17 179.42 33.43 179.42 33.71C179.42 33.99 179.27 34.25 179.02 34.38L172.79 37.79L169.38 44.02C169.25 44.27 168.99 44.42 168.71 44.42ZM160.36 33.71L165.56 36.55C165.69 36.62 165.79 36.73 165.87 36.85L168.71 42.05L171.55 36.85C171.62 36.72 171.73 36.62 171.86 36.55L177.06 33.71L171.86 30.87C171.73 30.8 171.63 30.69 171.55 30.56L168.71 25.36L165.87 30.56C165.8 30.69 165.69 30.79 165.56 30.87L160.36 33.71Z" fill="#0C133D"/>
<path d="M187.51 65.87C185.23 65.87 182.67 65.06 179.61 63.44C179.24 63.24 179.09 62.78 179.29 62.4C179.49 62.03 179.95 61.88 180.33 62.08C185.44 64.8 188.8 65.03 191.93 62.9C192.94 62.21 193.52 61.34 193.64 60.3C193.8 58.97 193.17 57.6 192.48 56.83C191.88 56.17 189.73 54.6 187.65 53.08C184.9 51.07 182.29 49.18 181.43 48.13C180.54 47.05 179.88 45.06 180.39 43.05C180.74 41.66 181.78 39.76 184.72 38.57C191.21 35.94 195.36 41.05 195.4 41.1C195.66 41.43 195.61 41.91 195.28 42.18C194.95 42.44 194.47 42.39 194.2 42.06C194.06 41.89 190.7 37.81 185.3 40C183.44 40.75 182.26 41.94 181.88 43.44C181.5 44.93 182 46.41 182.62 47.17C183.36 48.06 186.12 50.08 188.55 51.85C190.89 53.55 192.91 55.03 193.62 55.81C194.48 56.76 195.4 58.56 195.16 60.49C194.98 61.97 194.16 63.24 192.78 64.18C191.12 65.3 189.4 65.87 187.49 65.87H187.51Z" fill="white"/>
<path d="M187.69 71.1001C187.27 71.1001 186.92 70.7601 186.92 70.3301V33.3701C186.92 32.9501 187.26 32.6001 187.69 32.6001C188.12 32.6001 188.46 32.9401 188.46 33.3701V70.3301C188.46 70.7501 188.12 71.1001 187.69 71.1001Z" fill="white"/>
</g>
<defs>
<clipPath id="clip0_1_649">
<rect width="821" height="567" fill="white"/>
</clipPath>
</defs>
</svg>
