<svg width="114" height="50" viewBox="0 0 114 50" fill="none" xmlns="http://www.w3.org/2000/svg">
<g id="logo">
<g id="Group">
<g id="Group_2">
<path id="Vector" d="M47.8063 31.7021H51.5712L53.5672 39.7932L55.9226 31.7021H59.4653L61.7971 39.5225L63.8403 31.7021H67.5107L63.6653 44.9308H60.1464L57.6206 37.3526L55.1233 44.9308H51.3631L47.811 31.7021H47.8063Z" fill="#325975"/>
<path id="Vector_2" d="M68.3999 38.2643C68.3999 34.2948 71.4554 31.4648 75.2676 31.4648C79.0798 31.4648 82.1353 34.29 82.1353 38.2643C82.1353 42.2386 79.0751 45.0638 75.2676 45.0638C71.4601 45.0638 68.3999 42.2386 68.3999 38.2643ZM75.2676 41.4789C76.9893 41.4789 78.2994 40.1874 78.2994 38.2643C78.2994 36.3413 76.9893 35.0498 75.2676 35.0498C73.5459 35.0498 72.2358 36.3413 72.2358 38.2643C72.2358 40.1874 73.5459 41.4789 75.2676 41.4789Z" fill="#325975"/>
<path id="Vector_3" d="M88.5915 31.7021H90.2422V35.1636H88.9557C88.18 35.1636 87.8394 35.5055 87.8394 36.2842V44.9355H84.0035V36.3839C84.0035 33.1456 85.7252 31.7069 88.5915 31.7069V31.7021Z" fill="#325975"/>
<path id="Vector_4" d="M95.9464 31.707H92.1105V44.9356H95.9464V31.707Z" fill="#325975"/>
<path id="Vector_5" d="M105.997 44.8644V41.5976C107.066 41.7448 107.842 41.816 108.4 41.816C109.393 41.816 109.809 41.5738 109.809 41.061C109.809 40.6479 109.516 40.2823 108.693 39.6745L107.941 39.1142C106.461 38.0174 105.855 36.8588 105.855 35.4201C105.855 33.0317 107.577 31.6453 110.59 31.6453C111.219 31.6453 111.9 31.6927 112.652 31.8162V34.8123C111.947 34.7126 111.389 34.6889 111.077 34.6889C110.055 34.6889 109.573 34.931 109.573 35.3489C109.573 35.6433 109.814 36.0469 110.618 36.6072L111.299 37.0962C113.045 38.3403 113.773 39.5084 113.773 41.042C113.773 43.5776 111.881 45.0638 108.627 45.0638C107.899 45.0638 106.953 44.9926 106.007 44.8691L105.997 44.8644Z" fill="#325975"/>
</g>
<path id="Vector_6" d="M100.279 38.1362L104.625 32.0205H100.378L95.9463 38.1837L100.208 44.931H104.744L100.279 38.1362Z" fill="url(#paint0_linear_1_564)"/>
</g>
<g id="Group_3">
<path id="Vector_7" d="M55.5679 23.8725C55.5679 26.2561 54.0591 27.9132 52.101 27.9132C51.1219 27.9132 50.4219 27.5049 49.9205 26.9018V27.728H47.5461V16.9258H49.9205V20.8811C50.4077 20.2496 51.1361 19.827 52.1151 19.827C54.0307 19.827 55.5679 21.4699 55.5679 23.8677V23.8725ZM53.1652 23.8725C53.1652 22.8041 52.4651 22.1061 51.5428 22.1061C50.6205 22.1061 49.9205 22.8089 49.9205 23.8725C49.9205 24.9361 50.6205 25.6388 51.5428 25.6388C52.4651 25.6388 53.1652 24.9503 53.1652 23.8725Z" fill="url(#paint1_linear_1_564)"/>
<path id="Vector_8" d="M56.826 16.9304H59.2004V27.7327H56.826V16.9304Z" fill="url(#paint2_linear_1_564)"/>
<path id="Vector_9" d="M67.8512 20.0168V27.7327H65.4769V26.8496C64.9188 27.5523 64.2045 27.9179 63.268 27.9179C61.5748 27.9179 60.5295 26.7261 60.5295 24.8458V20.0216H62.9038V24.314C62.9038 25.1544 63.1545 25.6483 64.091 25.6483C65.0275 25.6483 65.4769 25.1829 65.4769 24.1193V20.0216H67.8512V20.0168Z" fill="url(#paint3_linear_1_564)"/>
<path id="Vector_10" d="M78.0393 17.9087V27.7281H75.6649V23.8535H71.9047V27.7281H69.5303V17.9087H71.9047V21.5838H75.6649V17.9087H78.0393Z" fill="url(#paint4_linear_1_564)"/>
<path id="Vector_11" d="M86.9739 20.0168V27.7327H84.5995V26.8496C84.0414 27.5523 83.3272 27.9179 82.3907 27.9179C80.6974 27.9179 79.6521 26.7261 79.6521 24.8458V20.0216H82.0265V24.314C82.0265 25.1544 82.2772 25.6483 83.2137 25.6483C84.1502 25.6483 84.5995 25.1829 84.5995 24.1193V20.0216H86.9739V20.0168Z" fill="url(#paint5_linear_1_564)"/>
<path id="Vector_12" d="M96.3909 23.8725C96.3909 26.2561 94.8821 27.9132 92.924 27.9132C91.9449 27.9132 91.2449 27.5049 90.7435 26.9018V27.728H88.3691V16.9258H90.7435V20.8811C91.2307 20.2496 91.9591 19.827 92.9381 19.827C94.8537 19.827 96.3909 21.4699 96.3909 23.8677V23.8725ZM93.9882 23.8725C93.9882 22.8041 93.2881 22.1061 92.3658 22.1061C91.4435 22.1061 90.7435 22.8089 90.7435 23.8725C90.7435 24.9361 91.4435 25.6388 92.3658 25.6388C93.2881 25.6388 93.9882 24.9503 93.9882 23.8725Z" fill="url(#paint6_linear_1_564)"/>
</g>
<g id="Group_4">
<path id="Vector_13" d="M14.0637 37.6469C13.1131 37.1199 11.7556 36.2842 10.4265 35.1589C7.47512 32.6565 5.95212 30.0165 5.0298 28.3831C2.25813 23.4782 1.32636 18.559 1 15.3302V5.45385C1 2.99426 2.98652 1 5.43657 1C6.66159 1 7.76836 1.49857 8.57243 2.30577C9.3765 3.11297 9.87313 4.22406 9.87313 5.45385V29.366C9.87313 32.7658 11.5238 35.7809 14.0637 37.6469Z" fill="url(#paint7_linear_1_564)" stroke="white" stroke-miterlimit="10"/>
<path id="Vector_14" d="M33.6404 34.7695C33.3188 36.3554 32.4343 40.4104 28.8964 43.7674C26.1721 46.3552 23.2396 47.2337 21.9578 47.5993C20.1321 48.1216 18.4577 48.283 17.0577 48.283C12.9995 47.6325 9.37177 45.7 6.59064 42.9128C3.13788 39.4465 1 34.6556 1 29.366V15.335C1.32636 18.5638 2.25813 23.4829 5.0298 28.3879C5.95212 30.0213 7.47512 32.6566 10.4265 35.1636C11.7556 36.289 13.1131 37.1247 14.0637 37.6517C15.7523 38.891 17.8381 39.627 20.0895 39.627C23.5234 39.627 26.6261 38.231 28.8775 35.9708C31.1242 33.7154 32.5195 30.5958 32.5195 27.1486C32.5195 24.7175 31.6776 22.4811 30.2634 20.7195C31.0863 21.6691 32.1222 23.0888 32.9073 24.9976C34.6905 29.3375 33.9526 33.2263 33.6404 34.7695Z" fill="url(#paint8_linear_1_564)" stroke="white" stroke-miterlimit="10"/>
<path id="Vector_15" d="M41.3879 27.1439C41.3879 38.9528 31.8526 48.5252 20.0896 48.5252C19.0585 48.5252 18.0463 48.4445 17.0577 48.2831C18.4578 48.2831 20.1321 48.1216 21.9578 47.5993C23.2443 47.2337 26.1721 46.3553 28.8965 43.7675C32.4344 40.4057 33.3188 36.3555 33.6405 34.7696C33.9526 33.2264 34.6905 29.3376 32.9073 24.9977C32.1222 23.0889 31.0864 21.6691 30.2634 20.7195C30.2634 20.7195 30.2634 20.7195 30.2587 20.7147C30.0269 20.4299 29.7857 20.1545 29.5255 19.8981C27.6762 18.0415 25.0984 16.7832 22.2795 16.7832C21.9436 16.7832 27.2127 16.7832 30.4999 16.8354C31.6587 16.8544 33.281 16.8972 35.1067 17.7281C38.0439 19.0576 39.5811 21.5314 40.0399 22.2959C40.6501 23.3073 41.0332 24.2712 41.2791 25.0784C41.3548 25.7574 41.3879 26.4506 41.3879 27.1486V27.1439Z" fill="url(#paint9_linear_1_564)" stroke="white" stroke-miterlimit="10"/>
<path id="Vector_16" d="M41.2744 25.0689C41.0284 24.2617 40.6453 23.2931 40.0352 22.2864C39.5764 21.522 38.0392 19.0481 35.102 17.7186C33.2716 16.8924 31.654 16.8497 30.4952 16.826C27.2079 16.769 24.1336 16.7595 21.324 16.7785C20.4916 16.5933 19.7443 16.166 19.1625 15.5819C18.3584 14.7747 17.8618 13.6636 17.8618 12.4338C17.8618 11.204 18.3584 10.0882 19.1625 9.28575C19.9666 8.48329 21.0734 7.97998 22.2984 7.97998C27.5674 7.97998 32.3398 10.1262 35.7925 13.5924C38.7912 16.6028 40.7967 20.6056 41.2697 25.0689H41.2744Z" fill="url(#paint10_linear_1_564)" stroke="white" stroke-miterlimit="10"/>
</g>
</g>
<defs>
<linearGradient id="paint0_linear_1_564" x1="95.9463" y1="38.4781" x2="104.744" y2="38.4781" gradientUnits="userSpaceOnUse">
<stop stop-color="#73ADDC"/>
<stop offset="1" stop-color="#325975"/>
</linearGradient>
<linearGradient id="paint1_linear_1_564" x1="98.264" y1="17.092" x2="34.0082" y2="24.1174" gradientUnits="userSpaceOnUse">
<stop stop-color="#73ADDC"/>
<stop offset="1" stop-color="#325975"/>
</linearGradient>
<linearGradient id="paint2_linear_1_564" x1="98.3539" y1="17.8848" x2="34.0933" y2="24.9103" gradientUnits="userSpaceOnUse">
<stop stop-color="#73ADDC"/>
<stop offset="1" stop-color="#325975"/>
</linearGradient>
<linearGradient id="paint3_linear_1_564" x1="98.5903" y1="20.0833" x2="34.3346" y2="27.1087" gradientUnits="userSpaceOnUse">
<stop stop-color="#73ADDC"/>
<stop offset="1" stop-color="#325975"/>
</linearGradient>
<linearGradient id="paint4_linear_1_564" x1="98.5951" y1="20.0881" x2="34.3346" y2="27.1136" gradientUnits="userSpaceOnUse">
<stop stop-color="#73ADDC"/>
<stop offset="1" stop-color="#325975"/>
</linearGradient>
<linearGradient id="paint5_linear_1_564" x1="98.822" y1="22.1631" x2="34.5616" y2="29.1885" gradientUnits="userSpaceOnUse">
<stop stop-color="#73ADDC"/>
<stop offset="1" stop-color="#325975"/>
</linearGradient>
<linearGradient id="paint6_linear_1_564" x1="98.7511" y1="21.5363" x2="34.4954" y2="28.5617" gradientUnits="userSpaceOnUse">
<stop stop-color="#73ADDC"/>
<stop offset="1" stop-color="#325975"/>
</linearGradient>
<linearGradient id="paint7_linear_1_564" x1="2.48043" y1="2.14433" x2="13.7836" y2="37.0135" gradientUnits="userSpaceOnUse">
<stop stop-color="#73ADDC"/>
<stop offset="1" stop-color="#325975"/>
</linearGradient>
<linearGradient id="paint8_linear_1_564" x1="1" y1="31.8066" x2="34.0567" y2="31.8066" gradientUnits="userSpaceOnUse">
<stop stop-color="#73ADDC"/>
<stop offset="1" stop-color="#325975"/>
</linearGradient>
<linearGradient id="paint9_linear_1_564" x1="30.7506" y1="46.1036" x2="25.5893" y2="15.6645" gradientUnits="userSpaceOnUse">
<stop stop-color="#73ADDC"/>
<stop offset="1" stop-color="#325975"/>
</linearGradient>
<linearGradient id="paint10_linear_1_564" x1="19.2098" y1="10.3399" x2="36.5244" y2="18.0672" gradientUnits="userSpaceOnUse">
<stop stop-color="#73ADDC"/>
<stop offset="1" stop-color="#325975"/>
</linearGradient>
</defs>
</svg>
